<svg xmlns="http://www.w3.org/2000/svg" viewBox="0 0 512 512">
  <defs>
    <linearGradient id="bg" x1="0%" x2="100%" y1="0%" y2="100%">
      <stop offset="0%" stop-color="#f7eddc"/>
      <stop offset="100%" stop-color="#efd5a1"/>
    </linearGradient>
    <linearGradient id="card" x1="0%" x2="100%" y1="0%" y2="100%">
      <stop offset="0%" stop-color="#d84f2a"/>
      <stop offset="100%" stop-color="#ea7c36"/>
    </linearGradient>
  </defs>
  <rect width="512" height="512" rx="120" fill="url(#bg)"/>
  <circle cx="386" cy="124" r="60" fill="#1f7a72" opacity="0.18"/>
  <rect x="112" y="112" width="288" height="288" rx="48" fill="#fff8eb" stroke="#1f1f1b" stroke-opacity="0.12" stroke-width="10"/>
  <rect x="156" y="152" width="200" height="208" rx="30" fill="url(#card)"/>
  <path d="M220 212c0-20 16-36 36-36s36 16 36 36v16h16c20 0 36 16 36 36s-16 36-36 36h-16v16c0 20-16 36-36 36s-36-16-36-36v-16h-16c-20 0-36-16-36-36s16-36 36-36h16z" fill="#fff8eb"/>
</svg>
